<svg xmlns="http://www.w3.org/2000/svg" width="48" height="48" viewBox="0 0 48 48" fill="none">
  <!-- Eyelash Curve (Charcoal) -->
  <path d="M11 21C16 26 26 26 31 21" stroke="#1c1a18" stroke-width="3" stroke-linecap="round" />
  
  <!-- Eyelashes -->
  <path d="M14.5 23L11.5 28.5" stroke="#1c1a18" stroke-width="2.5" stroke-linecap="round" />
  <path d="M21 24.3V30.8" stroke="#1c1a18" stroke-width="2.5" stroke-linecap="round" />
  <path d="M27.5 23L30.5 28.5" stroke="#1c1a18" stroke-width="2.5" stroke-linecap="round" />
  <path d="M31 21L34.5 25.5" stroke="#1c1a18" stroke-width="2.5" stroke-linecap="round" />
  <path d="M11 21L7.5 25.5" stroke="#1c1a18" stroke-width="2.5" stroke-linecap="round" />

  <!-- Premium Beauty Sparkle (Gold/Sand) -->
  <path d="M31 8C31 11 29 13 26 13C29 13 31 15 31 18C31 15 33 13 36 13C33 13 31 11 31 8Z" fill="#c3b091" />
  <path d="M14 9C14 10.5 13 11.5 11.5 11.5C13 11.5 14 12.5 14 14C14 12.5 15 11.5 16.5 11.5C15 11.5 14 10.5 14 9Z" fill="#c3b091" opacity="0.8" />
</svg>